<svg width="657" height="755" viewBox="0 0 657 755" fill="none" xmlns="http://www.w3.org/2000/svg">
    <path
        d="M261.424 754.636C235.795 754.636 221.583 730.263 221.583 693.234V595.271H314.39V680.578C314.39 743.387 287.054 754.636 261.424 754.636Z"
        fill="#29544A" />
    <path
        d="M0.938011 471.529C0.938011 471.529 -0.674385 696.196 78.5956 688.078C96.9038 686.203 110.469 656.205 110.469 609.333"
        fill="#29544A" />
    <path
        d="M399.225 754.636C424.855 754.636 439.066 730.263 439.066 693.234V595.271H346.26V680.578C346.26 743.387 373.596 754.636 399.225 754.636Z"
        fill="#29544A" />
    <path
        d="M656.554 471.529C656.554 471.529 658.166 696.196 578.896 688.078C560.588 686.203 547.023 656.205 547.023 609.333"
        fill="#29544A" />
    <path d="M327.351 146.2C327.351 146.2 341.113 35.4507 201.706 41.6471C201.706 41.6471 212.14 193.438 327.351 146.2Z"
        fill="#295444" />
    <path
        d="M334.074 152.527C334.074 152.527 489.558 204.114 520.643 1.66466C520.643 1.66466 299.135 -26.8898 334.074 152.527Z"
        fill="#295444" />
    <path
        d="M655.616 441.531C643.157 276.072 499.804 154.505 351.876 142.524C348.585 142.262 345.36 141.362 342.52 139.693C337.692 136.853 333.539 132.006 333.539 123.738C333.539 107.802 338.283 66.7886 347.198 40.4559C349.251 34.3906 344.704 28.1191 338.302 28.1191H328.055H317.668C311.266 28.1191 306.729 34.3906 308.772 40.4559C317.687 66.7886 322.431 107.802 322.431 123.738C322.431 131.472 318.784 136.215 314.369 139.122C311.294 141.137 307.703 142.215 304.038 142.496C155.604 154.149 7.45984 272.51 0.344666 441.531C-6.1143 594.971 78.3492 647.768 241.708 647.768H414.244C577.602 647.768 667.137 594.671 655.607 441.531H655.616Z"
        fill="url(#paint0_radial_260_1168)" />
    <path
        d="M581.557 459.539C581.557 559.077 505.952 591.794 374.382 595.262C368.205 595.422 286.929 595.262 280.638 595.262C140.332 595.262 73.4639 563.745 73.4639 459.539C73.4639 355.333 203.768 262.48 327.51 262.48C461.564 262.48 581.557 355.333 581.557 459.539Z"
        fill="#D6EBDD" />
    <mask id="mask0_260_1168" style="mask-type:luminance" maskUnits="userSpaceOnUse" x="73" y="262" width="509"
        height="334">
        <path
            d="M581.553 459.539C581.553 559.077 505.948 591.794 374.379 595.262C368.201 595.422 286.925 595.262 280.634 595.262C140.328 595.262 73.46 563.745 73.46 459.539C73.46 355.333 203.764 262.48 327.506 262.48C461.561 262.48 581.553 355.333 581.553 459.539Z"
            fill="white" />
    </mask>
    <g mask="url(#mask0_260_1168)">
        <path
            d="M140.96 583.085C177.201 583.085 206.581 553.706 206.581 517.464C206.581 481.223 177.201 451.843 140.96 451.843C104.718 451.843 75.3389 481.223 75.3389 517.464C75.3389 553.706 104.718 583.085 140.96 583.085Z"
            fill="#A8D9B8" />
        <path
            d="M514.061 583.085C550.303 583.085 579.682 553.706 579.682 517.464C579.682 481.223 550.303 451.843 514.061 451.843C477.82 451.843 448.44 481.223 448.44 517.464C448.44 553.706 477.82 583.085 514.061 583.085Z"
            fill="#A8D9B8" />
        <path
            d="M112.301 526.436C112.057 526.436 111.823 526.343 111.636 526.165C111.27 525.799 111.27 525.208 111.636 524.843L127.703 508.775C128.069 508.409 128.659 508.409 129.025 508.775C129.391 509.141 129.391 509.731 129.025 510.097L112.957 526.165C112.77 526.352 112.535 526.436 112.292 526.436H112.301Z"
            fill="#D5F1E4" />
        <path
            d="M130.646 528.714C130.402 528.714 130.168 528.62 129.98 528.442C129.615 528.077 129.615 527.486 129.98 527.12L150.604 506.497C150.97 506.131 151.56 506.131 151.926 506.497C152.291 506.862 152.291 507.453 151.926 507.818L131.302 528.442C131.115 528.63 130.88 528.714 130.636 528.714H130.646Z"
            fill="#D5F1E4" />
        <path
            d="M153.549 526.436C153.305 526.436 153.071 526.343 152.884 526.165C152.518 525.799 152.518 525.208 152.884 524.843L168.951 508.775C169.317 508.409 169.908 508.409 170.273 508.775C170.639 509.141 170.639 509.731 170.273 510.097L154.205 526.165C154.018 526.352 153.784 526.436 153.54 526.436H153.549Z"
            fill="#D5F1E4" />
        <path
            d="M542.721 526.436C542.478 526.436 542.243 526.342 542.056 526.164L525.988 510.096C525.622 509.731 525.622 509.14 525.988 508.774C526.354 508.409 526.944 508.409 527.31 508.774L543.378 524.842C543.743 525.208 543.743 525.798 543.378 526.164C543.19 526.352 542.956 526.436 542.712 526.436H542.721Z"
            fill="#D5F1E4" />
        <path
            d="M524.375 528.713C524.131 528.713 523.897 528.62 523.709 528.442L503.086 507.818C502.72 507.452 502.72 506.862 503.086 506.496C503.451 506.131 504.042 506.131 504.408 506.496L525.031 527.12C525.397 527.485 525.397 528.076 525.031 528.442C524.844 528.629 524.609 528.713 524.366 528.713H524.375Z"
            fill="#D5F1E4" />
        <path
            d="M501.474 526.436C501.231 526.436 500.996 526.342 500.809 526.164L484.741 510.096C484.375 509.731 484.375 509.14 484.741 508.774C485.107 508.409 485.697 508.409 486.063 508.774L502.131 524.842C502.496 525.208 502.496 525.798 502.131 526.164C501.943 526.352 501.709 526.436 501.465 526.436H501.474Z"
            fill="#D5F1E4" />
    </g>
    <g filter="url(#filter0_i_260_1168)">
        <path
            d="M581.557 459.539C581.557 559.077 505.952 591.794 374.382 595.262C368.205 595.421 286.929 595.262 280.638 595.262C140.332 595.262 73.4639 563.745 73.4639 459.539C73.4639 355.333 203.768 262.48 327.51 262.48C461.564 262.48 581.557 355.333 581.557 459.539Z"
            fill="#F2F9ED" fill-opacity="0.01" />
    </g>
    <path
        d="M204.105 507.152C231.028 507.152 252.852 485.327 252.852 458.405C252.852 431.483 231.028 409.658 204.105 409.658C177.183 409.658 155.358 431.483 155.358 458.405C155.358 485.327 177.183 507.152 204.105 507.152Z"
        fill="white" />
    <path
        d="M204.104 488.702C220.837 488.702 234.402 475.137 234.402 458.404C234.402 441.671 220.837 428.106 204.104 428.106C187.371 428.106 173.806 441.671 173.806 458.404C173.806 475.137 187.371 488.702 204.104 488.702Z"
        fill="#39393B" />
    <path
        d="M450.905 507.152C477.827 507.152 499.652 485.327 499.652 458.405C499.652 431.483 477.827 409.658 450.905 409.658C423.983 409.658 402.158 431.483 402.158 458.405C402.158 485.327 423.983 507.152 450.905 507.152Z"
        fill="white" />
    <path
        d="M450.905 488.702C467.638 488.702 481.203 475.137 481.203 458.404C481.203 441.671 467.638 428.106 450.905 428.106C434.171 428.106 420.606 441.671 420.606 458.404C420.606 475.137 434.171 488.702 450.905 488.702Z"
        fill="#39393B" />
    <path
        d="M327.514 513.713C314.192 513.713 301.921 508.726 292.959 499.67C283.81 490.427 278.767 477.434 278.767 463.091C278.767 450.145 289.257 439.655 302.203 439.655C315.149 439.655 325.639 450.145 325.639 463.091C325.639 465.219 326.06 466.335 326.248 466.663C326.389 466.719 326.782 466.841 327.514 466.841C328.245 466.841 328.638 466.719 328.779 466.663C328.976 466.335 329.388 465.219 329.388 463.091C329.388 450.145 339.878 439.655 352.824 439.655C365.771 439.655 376.26 450.145 376.26 463.091C376.26 477.434 371.217 490.427 362.068 499.67C353.106 508.726 340.835 513.713 327.514 513.713Z"
        fill="#EE868C" />
    <path
        d="M327.513 491.214C311.811 491.214 301.265 479.908 301.265 463.091C301.265 462.575 301.686 462.153 302.202 462.153C302.718 462.153 303.14 462.575 303.14 463.091C303.14 478.793 312.936 489.339 327.513 489.339C342.09 489.339 351.886 478.793 351.886 463.091C351.886 462.575 352.308 462.153 352.824 462.153C353.339 462.153 353.761 462.575 353.761 463.091C353.761 479.908 343.215 491.214 327.513 491.214Z"
        fill="black" />
    <path
        d="M153.997 388.296L145.38 396.913C140.621 401.673 140.621 409.389 145.38 414.148C150.139 418.907 157.855 418.907 162.615 414.148L171.232 405.531C175.991 400.772 175.991 393.055 171.232 388.296C166.473 383.537 158.757 383.537 153.997 388.296Z"
        fill="#39393B" />
    <path
        d="M501.026 388.292C496.267 383.532 488.55 383.532 483.791 388.292C479.032 393.051 479.032 400.767 483.791 405.526L492.408 414.144C497.168 418.903 504.884 418.903 509.643 414.144C514.402 409.384 514.402 401.668 509.643 396.909L501.026 388.292Z"
        fill="#39393B" />
    <defs>
        <filter id="filter0_i_260_1168" x="73.4639" y="262.48" width="508.093" height="333.853"
            filterUnits="userSpaceOnUse" color-interpolation-filters="sRGB">
            <feFlood flood-opacity="0" result="BackgroundImageFix" />
            <feBlend mode="normal" in="SourceGraphic" in2="BackgroundImageFix" result="shape" />
            <feColorMatrix in="SourceAlpha" type="matrix" values="0 0 0 0 0 0 0 0 0 0 0 0 0 0 0 0 0 0 127 0"
                result="hardAlpha" />
            <feOffset dy="1" />
            <feGaussianBlur stdDeviation="5.5" />
            <feComposite in2="hardAlpha" operator="arithmetic" k2="-1" k3="1" />
            <feColorMatrix type="matrix" values="0 0 0 0 0.288889 0 0 0 0 0.541667 0 0 0 0 0.4491 0 0 0 1 0" />
            <feBlend mode="normal" in2="shape" result="effect1_innerShadow_260_1168" />
        </filter>
        <radialGradient id="paint0_radial_260_1168" cx="0" cy="0" r="1" gradientUnits="userSpaceOnUse"
            gradientTransform="translate(489.98 171.555) rotate(124.798) scale(477.951 506.451)">
            <stop stop-color="#A1E6B4" />
            <stop offset="1" stop-color="#2B7362" />
        </radialGradient>
    </defs>
</svg>