<?xml version="1.0" standalone="no"?>
<!DOCTYPE svg PUBLIC "-//W3C//DTD SVG 20010904//EN"
 "http://www.w3.org/TR/2001/REC-SVG-20010904/DTD/svg10.dtd">
<svg version="1.0" xmlns="http://www.w3.org/2000/svg"
 width="755.000000pt" height="755.000000pt" viewBox="0 0 755.000000 755.000000"
 preserveAspectRatio="xMidYMid meet">
<metadata>
Created by potrace 1.14, written by Peter Selinger 2001-2017
</metadata>
<g transform="translate(0.000000,755.000000) scale(0.100000,-0.100000)"
fill="#000000" stroke="none">
<path d="M5159 7546 c-4 -3 -35 -7 -174 -21 -95 -9 -239 -40 -360 -77 -38 -12
-72 -22 -75 -23 -3 -1 -18 -7 -33 -13 -16 -7 -30 -12 -33 -12 -17 0 -191 -92
-253 -134 -70 -48 -241 -208 -241 -226 0 -5 -6 -15 -13 -22 -7 -7 -27 -38 -45
-68 -33 -57 -40 -53 -21 14 6 21 12 46 14 55 2 9 13 46 24 83 10 37 18 73 17
80 -13 74 -41 86 -196 86 -139 0 -170 -9 -189 -56 -10 -24 -8 -45 18 -138 34
-127 44 -165 45 -179 1 -5 7 -41 14 -80 20 -120 23 -139 28 -180 3 -22 6 -48
8 -57 7 -31 -2 -20 -23 28 -33 73 -104 174 -166 234 -78 76 -83 80 -90 80 -5
0 -64 39 -75 50 -3 3 -39 21 -80 41 -67 32 -102 45 -135 49 -5 1 -14 5 -20 10
-9 7 -33 14 -95 25 -14 3 -36 8 -50 11 -14 3 -45 8 -70 11 -25 3 -61 8 -80 11
-19 4 -93 7 -165 7 l-130 0 1 -50 c1 -46 9 -109 19 -145 2 -8 7 -31 10 -50 43
-253 197 -572 339 -702 78 -71 101 -89 124 -94 12 -4 22 -10 22 -14 0 -5 10
-12 23 -16 20 -7 19 -8 -13 -16 -111 -26 -157 -40 -280 -81 -69 -23 -127 -42
-130 -42 -7 -2 -38 -15 -85 -35 -22 -10 -50 -21 -62 -24 -28 -9 -346 -166
-353 -175 -3 -3 -25 -17 -50 -30 -65 -35 -244 -152 -248 -162 -2 -5 -8 -9 -13
-9 -8 0 -172 -124 -205 -155 -6 -5 -35 -30 -64 -55 -133 -112 -329 -321 -447
-476 -152 -200 -323 -499 -400 -699 -16 -44 -34 -89 -38 -100 -5 -11 -9 -22
-10 -25 0 -3 -10 -34 -22 -70 -12 -36 -28 -87 -36 -115 -18 -60 -73 -329 -82
-400 -3 -27 -8 -70 -11 -95 -7 -61 -13 -583 -7 -593 3 -5 7 -60 9 -122 4 -156
24 -432 39 -535 4 -25 8 -63 10 -85 3 -40 5 -52 30 -205 8 -47 17 -103 20
-125 3 -22 8 -47 11 -55 3 -8 8 -28 11 -45 2 -16 14 -61 24 -100 11 -38 22
-78 24 -89 19 -87 112 -323 149 -379 11 -17 28 -45 36 -61 8 -17 47 -62 86
-102 99 -101 181 -137 307 -135 92 2 169 63 229 183 48 95 95 271 97 369 1 31
-8 32 156 -15 74 -22 157 -41 255 -61 34 -6 208 -33 270 -40 71 -9 326 -27
400 -28 l45 -1 1 -276 c1 -253 3 -309 19 -395 30 -169 115 -309 221 -363 56
-28 86 -34 174 -34 123 0 203 22 283 78 69 49 155 169 172 242 3 9 13 52 24
95 26 103 34 202 35 437 1 107 4 200 8 205 6 11 293 13 304 3 3 -4 7 -118 9
-255 3 -267 6 -298 36 -413 20 -78 31 -107 56 -150 8 -14 17 -33 20 -43 3 -9
9 -17 14 -17 5 0 9 -5 9 -10 0 -27 145 -138 190 -146 3 0 24 -6 47 -12 96 -28
244 -19 318 20 86 46 177 178 201 293 1 6 7 33 14 60 6 28 14 86 16 129 3 44
7 83 10 87 2 4 0 10 -6 14 -6 4 -8 11 -4 16 5 9 7 263 2 347 -2 23 0 42 4 42
3 0 4 8 1 19 -3 10 -1 21 4 24 4 2 62 8 128 12 149 8 193 12 247 19 24 3 66 8
95 11 65 7 239 37 293 50 14 3 34 8 45 10 11 2 47 11 80 20 33 8 65 17 70 18
6 1 16 6 23 10 6 5 12 6 12 3 0 -3 19 1 42 10 45 16 52 14 54 -19 9 -172 87
-387 169 -472 52 -53 98 -75 158 -76 159 -2 284 75 392 241 35 54 115 210 115
225 0 2 4 14 9 27 5 13 9 25 9 28 0 3 7 23 17 45 9 22 18 47 20 55 3 8 13 49
25 90 11 41 22 89 25 105 3 17 11 47 16 69 6 21 14 62 19 90 5 28 11 60 13 71
3 11 8 40 11 65 3 25 8 54 10 65 6 30 17 115 22 165 2 25 6 59 8 75 5 29 14
132 21 230 28 394 24 814 -10 1010 -3 17 -8 48 -10 70 -4 35 -39 204 -50 245
-5 15 -33 123 -40 150 -2 8 -4 15 -4 15 -1 0 -19 50 -40 110 -118 336 -271
615 -491 900 -103 132 -143 177 -280 315 -126 125 -185 178 -290 260 -25 19
-47 37 -50 40 -34 34 -249 181 -310 212 -14 7 -27 15 -30 18 -14 17 -264 146
-370 193 -19 8 -55 24 -80 35 -25 10 -70 27 -100 38 -30 10 -59 22 -64 26 -6
4 -16 8 -22 8 -7 0 -25 5 -41 12 -15 7 -32 12 -38 13 -5 1 -28 7 -49 14 l-40
14 83 28 c71 24 142 56 226 103 95 53 293 232 355 321 14 20 30 42 35 48 6 7
29 41 50 77 22 36 42 67 45 70 9 8 50 98 50 110 0 5 5 10 10 10 6 0 10 5 10
11 0 6 6 25 14 42 55 123 140 392 130 409 -3 4 -1 8 4 8 5 0 9 6 9 13 0 6 7
48 16 92 9 44 19 92 21 108 3 15 7 36 11 46 4 14 -1 20 -22 26 -26 8 -507 17
-514 11z"/>
</g>
</svg>
